<?xml version="1.0" standalone="no"?>
<!DOCTYPE svg PUBLIC "-//W3C//DTD SVG 20010904//EN"
 "http://www.w3.org/TR/2001/REC-SVG-20010904/DTD/svg10.dtd">
<svg version="1.0" xmlns="http://www.w3.org/2000/svg"
 width="326.000000pt" height="326.000000pt" viewBox="0 0 326.000000 326.000000"
 preserveAspectRatio="xMidYMid meet">
<metadata>
Created by potrace 1.14, written by Peter Selinger 2001-2017
</metadata>
<g transform="translate(0.000000,326.000000) scale(0.100000,-0.100000)"
fill="#000000" stroke="none">
<path d="M0 1630 l0 -1630 1630 0 1630 0 0 1630 0 1630 -1630 0 -1630 0 0
-1630z m2480 890 l0 -120 -100 0 -100 0 0 120 0 120 100 0 100 0 0 -120z
m-1378 -438 c198 -198 318 -325 318 -337 0 -12 -118 -137 -313 -332 -247 -248
-317 -313 -338 -313 -19 0 -47 22 -107 84 -45 46 -82 92 -82 102 0 10 96 114
222 241 l222 223 -222 223 c-124 124 -222 231 -222 241 0 25 161 186 185 186
12 0 137 -117 337 -318z m1378 -499 c0 -329 -4 -634 -9 -678 -13 -109 -43
-184 -98 -245 -81 -90 -150 -110 -380 -110 l-143 0 0 85 0 85 154 0 c142 0
155 2 187 23 19 12 45 44 59 72 l25 50 3 583 3 582 -166 0 -165 0 0 75 0 75
265 0 265 0 0 -597z"/>
</g>
</svg>
